<?xml version="1.0" encoding="utf-8" standalone="no"?>
<!DOCTYPE svg PUBLIC "-//W3C//DTD SVG 1.1//EN"
  "http://www.w3.org/Graphics/SVG/1.1/DTD/svg11.dtd">
<svg xmlns:xlink="http://www.w3.org/1999/xlink" width="499.9025pt" height="154.1825pt" viewBox="0 0 499.9025 154.1825" xmlns="http://www.w3.org/2000/svg" version="1.1">
 <metadata>
  <rdf:RDF xmlns:dc="http://purl.org/dc/elements/1.1/" xmlns:cc="http://creativecommons.org/ns#" xmlns:rdf="http://www.w3.org/1999/02/22-rdf-syntax-ns#">
   <cc:Work>
    <dc:type rdf:resource="http://purl.org/dc/dcmitype/StillImage"/>
    <dc:date>2024-03-13T17:50:08.946606</dc:date>
    <dc:format>image/svg+xml</dc:format>
    <dc:creator>
     <cc:Agent>
      <dc:title>Matplotlib v3.7.2, https://matplotlib.org/</dc:title>
     </cc:Agent>
    </dc:creator>
   </cc:Work>
  </rdf:RDF>
 </metadata>
 <defs>
  <style type="text/css">*{stroke-linejoin: round; stroke-linecap: butt}</style>
 </defs>
 <g id="figure_1">
  <g id="patch_1">
   <path d="M 0 154.1825 
L 499.9025 154.1825 
L 499.9025 0 
L 0 0 
z
" style="fill: #ffffff"/>
  </g>
  <g id="axes_1">
   <g id="patch_2">
    <path d="M 46.3025 118.08 
L 492.7025 118.08 
L 492.7025 7.2 
L 46.3025 7.2 
z
" style="fill: #ffffff"/>
   </g>
   <g id="patch_3">
    <path d="M 66.593409 118.08 
L 70.692583 118.08 
L 70.692583 118.08 
L 66.593409 118.08 
z
" clip-path="url(#pb7cc69131d)" style="fill: #2c9b03; opacity: 0.5"/>
   </g>
   <g id="patch_4">
    <path d="M 70.692583 118.08 
L 74.791756 118.08 
L 74.791756 118.08 
L 70.692583 118.08 
z
" clip-path="url(#pb7cc69131d)" style="fill: #2c9b03; opacity: 0.5"/>
   </g>
   <g id="patch_5">
    <path d="M 74.791756 118.08 
L 78.89093 118.08 
L 78.89093 117.838168 
L 74.791756 117.838168 
z
" clip-path="url(#pb7cc69131d)" style="fill: #2c9b03; opacity: 0.5"/>
   </g>
   <g id="patch_6">
    <path d="M 78.89093 118.08 
L 82.990103 118.08 
L 82.990103 117.999389 
L 78.89093 117.999389 
z
" clip-path="url(#pb7cc69131d)" style="fill: #2c9b03; opacity: 0.5"/>
   </g>
   <g id="patch_7">
    <path d="M 82.990103 118.08 
L 87.089277 118.08 
L 87.089277 118.08 
L 82.990103 118.08 
z
" clip-path="url(#pb7cc69131d)" style="fill: #2c9b03; opacity: 0.5"/>
   </g>
   <g id="patch_8">
    <path d="M 87.089277 118.08 
L 91.18845 118.08 
L 91.18845 117.999389 
L 87.089277 117.999389 
z
" clip-path="url(#pb7cc69131d)" style="fill: #2c9b03; opacity: 0.5"/>
   </g>
   <g id="patch_9">
    <path d="M 91.18845 118.08 
L 95.287624 118.08 
L 95.287624 118.08 
L 91.18845 118.08 
z
" clip-path="url(#pb7cc69131d)" style="fill: #2c9b03; opacity: 0.5"/>
   </g>
   <g id="patch_10">
    <path d="M 95.287624 118.08 
L 99.386798 118.08 
L 99.386798 118.08 
L 95.287624 118.08 
z
" clip-path="url(#pb7cc69131d)" style="fill: #2c9b03; opacity: 0.5"/>
   </g>
   <g id="patch_11">
    <path d="M 99.386798 118.08 
L 103.485971 118.08 
L 103.485971 117.918779 
L 99.386798 117.918779 
z
" clip-path="url(#pb7cc69131d)" style="fill: #2c9b03; opacity: 0.5"/>
   </g>
   <g id="patch_12">
    <path d="M 103.485971 118.08 
L 107.585145 118.08 
L 107.585145 117.838168 
L 103.485971 117.838168 
z
" clip-path="url(#pb7cc69131d)" style="fill: #2c9b03; opacity: 0.5"/>
   </g>
   <g id="patch_13">
    <path d="M 107.585145 118.08 
L 111.684318 118.08 
L 111.684318 117.838168 
L 107.585145 117.838168 
z
" clip-path="url(#pb7cc69131d)" style="fill: #2c9b03; opacity: 0.5"/>
   </g>
   <g id="patch_14">
    <path d="M 111.684318 118.08 
L 115.783492 118.08 
L 115.783492 117.999389 
L 111.684318 117.999389 
z
" clip-path="url(#pb7cc69131d)" style="fill: #2c9b03; opacity: 0.5"/>
   </g>
   <g id="patch_15">
    <path d="M 115.783492 118.08 
L 119.882665 118.08 
L 119.882665 117.918779 
L 115.783492 117.918779 
z
" clip-path="url(#pb7cc69131d)" style="fill: #2c9b03; opacity: 0.5"/>
   </g>
   <g id="patch_16">
    <path d="M 119.882665 118.08 
L 123.981839 118.08 
L 123.981839 117.676947 
L 119.882665 117.676947 
z
" clip-path="url(#pb7cc69131d)" style="fill: #2c9b03; opacity: 0.5"/>
   </g>
   <g id="patch_17">
    <path d="M 123.981839 118.08 
L 128.081012 118.08 
L 128.081012 117.838168 
L 123.981839 117.838168 
z
" clip-path="url(#pb7cc69131d)" style="fill: #2c9b03; opacity: 0.5"/>
   </g>
   <g id="patch_18">
    <path d="M 128.081012 118.08 
L 132.180186 118.08 
L 132.180186 117.676947 
L 128.081012 117.676947 
z
" clip-path="url(#pb7cc69131d)" style="fill: #2c9b03; opacity: 0.5"/>
   </g>
   <g id="patch_19">
    <path d="M 132.180186 118.08 
L 136.27936 118.08 
L 136.27936 117.757557 
L 132.180186 117.757557 
z
" clip-path="url(#pb7cc69131d)" style="fill: #2c9b03; opacity: 0.5"/>
   </g>
   <g id="patch_20">
    <path d="M 136.27936 118.08 
L 140.378533 118.08 
L 140.378533 117.273893 
L 136.27936 117.273893 
z
" clip-path="url(#pb7cc69131d)" style="fill: #2c9b03; opacity: 0.5"/>
   </g>
   <g id="patch_21">
    <path d="M 140.378533 118.08 
L 144.477707 118.08 
L 144.477707 117.435115 
L 140.378533 117.435115 
z
" clip-path="url(#pb7cc69131d)" style="fill: #2c9b03; opacity: 0.5"/>
   </g>
   <g id="patch_22">
    <path d="M 144.477707 118.08 
L 148.57688 118.08 
L 148.57688 117.032061 
L 144.477707 117.032061 
z
" clip-path="url(#pb7cc69131d)" style="fill: #2c9b03; opacity: 0.5"/>
   </g>
   <g id="patch_23">
    <path d="M 148.57688 118.08 
L 152.676054 118.08 
L 152.676054 116.790229 
L 148.57688 116.790229 
z
" clip-path="url(#pb7cc69131d)" style="fill: #2c9b03; opacity: 0.5"/>
   </g>
   <g id="patch_24">
    <path d="M 152.676054 118.08 
L 156.775227 118.08 
L 156.775227 116.306565 
L 152.676054 116.306565 
z
" clip-path="url(#pb7cc69131d)" style="fill: #2c9b03; opacity: 0.5"/>
   </g>
   <g id="patch_25">
    <path d="M 156.775227 118.08 
L 160.874401 118.08 
L 160.874401 115.419847 
L 156.775227 115.419847 
z
" clip-path="url(#pb7cc69131d)" style="fill: #2c9b03; opacity: 0.5"/>
   </g>
   <g id="patch_26">
    <path d="M 160.874401 118.08 
L 164.973574 118.08 
L 164.973574 115.339237 
L 160.874401 115.339237 
z
" clip-path="url(#pb7cc69131d)" style="fill: #2c9b03; opacity: 0.5"/>
   </g>
   <g id="patch_27">
    <path d="M 164.973574 118.08 
L 169.072748 118.08 
L 169.072748 113.243359 
L 164.973574 113.243359 
z
" clip-path="url(#pb7cc69131d)" style="fill: #2c9b03; opacity: 0.5"/>
   </g>
   <g id="patch_28">
    <path d="M 169.072748 118.08 
L 173.171921 118.08 
L 173.171921 111.469924 
L 169.072748 111.469924 
z
" clip-path="url(#pb7cc69131d)" style="fill: #2c9b03; opacity: 0.5"/>
   </g>
   <g id="patch_29">
    <path d="M 173.171921 118.08 
L 177.271095 118.08 
L 177.271095 106.713893 
L 173.171921 106.713893 
z
" clip-path="url(#pb7cc69131d)" style="fill: #2c9b03; opacity: 0.5"/>
   </g>
   <g id="patch_30">
    <path d="M 177.271095 118.08 
L 181.370269 118.08 
L 181.370269 102.360916 
L 177.271095 102.360916 
z
" clip-path="url(#pb7cc69131d)" style="fill: #2c9b03; opacity: 0.5"/>
   </g>
   <g id="patch_31">
    <path d="M 181.370269 118.08 
L 185.469442 118.08 
L 185.469442 96.073282 
L 181.370269 96.073282 
z
" clip-path="url(#pb7cc69131d)" style="fill: #2c9b03; opacity: 0.5"/>
   </g>
   <g id="patch_32">
    <path d="M 185.469442 118.08 
L 189.568616 118.08 
L 189.568616 86.561221 
L 185.469442 86.561221 
z
" clip-path="url(#pb7cc69131d)" style="fill: #2c9b03; opacity: 0.5"/>
   </g>
   <g id="patch_33">
    <path d="M 189.568616 118.08 
L 193.667789 118.08 
L 193.667789 76.243053 
L 189.568616 76.243053 
z
" clip-path="url(#pb7cc69131d)" style="fill: #2c9b03; opacity: 0.5"/>
   </g>
   <g id="patch_34">
    <path d="M 193.667789 118.08 
L 197.766963 118.08 
L 197.766963 60.443359 
L 193.667789 60.443359 
z
" clip-path="url(#pb7cc69131d)" style="fill: #2c9b03; opacity: 0.5"/>
   </g>
   <g id="patch_35">
    <path d="M 197.766963 118.08 
L 201.866136 118.08 
L 201.866136 37.952977 
L 197.766963 37.952977 
z
" clip-path="url(#pb7cc69131d)" style="fill: #2c9b03; opacity: 0.5"/>
   </g>
   <g id="patch_36">
    <path d="M 201.866136 118.08 
L 205.96531 118.08 
L 205.96531 24.490992 
L 201.866136 24.490992 
z
" clip-path="url(#pb7cc69131d)" style="fill: #2c9b03; opacity: 0.5"/>
   </g>
   <g id="patch_37">
    <path d="M 205.96531 118.08 
L 210.064483 118.08 
L 210.064483 18.283969 
L 205.96531 18.283969 
z
" clip-path="url(#pb7cc69131d)" style="fill: #2c9b03; opacity: 0.5"/>
   </g>
   <g id="patch_38">
    <path d="M 210.064483 118.08 
L 214.163657 118.08 
L 214.163657 12.48 
L 210.064483 12.48 
z
" clip-path="url(#pb7cc69131d)" style="fill: #2c9b03; opacity: 0.5"/>
   </g>
   <g id="patch_39">
    <path d="M 214.163657 118.08 
L 218.262831 118.08 
L 218.262831 22.314504 
L 214.163657 22.314504 
z
" clip-path="url(#pb7cc69131d)" style="fill: #2c9b03; opacity: 0.5"/>
   </g>
   <g id="patch_40">
    <path d="M 218.262831 118.08 
L 222.362004 118.08 
L 222.362004 38.759084 
L 218.262831 38.759084 
z
" clip-path="url(#pb7cc69131d)" style="fill: #2c9b03; opacity: 0.5"/>
   </g>
   <g id="patch_41">
    <path d="M 222.362004 118.08 
L 226.461178 118.08 
L 226.461178 57.05771 
L 222.362004 57.05771 
z
" clip-path="url(#pb7cc69131d)" style="fill: #2c9b03; opacity: 0.5"/>
   </g>
   <g id="patch_42">
    <path d="M 226.461178 118.08 
L 230.560351 118.08 
L 230.560351 72.212519 
L 226.461178 72.212519 
z
" clip-path="url(#pb7cc69131d)" style="fill: #2c9b03; opacity: 0.5"/>
   </g>
   <g id="patch_43">
    <path d="M 230.560351 118.08 
L 234.659525 118.08 
L 234.659525 88.415267 
L 230.560351 88.415267 
z
" clip-path="url(#pb7cc69131d)" style="fill: #2c9b03; opacity: 0.5"/>
   </g>
   <g id="patch_44">
    <path d="M 234.659525 118.08 
L 238.758698 118.08 
L 238.758698 97.121221 
L 234.659525 97.121221 
z
" clip-path="url(#pb7cc69131d)" style="fill: #2c9b03; opacity: 0.5"/>
   </g>
   <g id="patch_45">
    <path d="M 238.758698 118.08 
L 242.857872 118.08 
L 242.857872 102.925191 
L 238.758698 102.925191 
z
" clip-path="url(#pb7cc69131d)" style="fill: #2c9b03; opacity: 0.5"/>
   </g>
   <g id="patch_46">
    <path d="M 242.857872 118.08 
L 246.957045 118.08 
L 246.957045 106.069008 
L 242.857872 106.069008 
z
" clip-path="url(#pb7cc69131d)" style="fill: #2c9b03; opacity: 0.5"/>
   </g>
   <g id="patch_47">
    <path d="M 246.957045 118.08 
L 251.056219 118.08 
L 251.056219 110.583206 
L 246.957045 110.583206 
z
" clip-path="url(#pb7cc69131d)" style="fill: #2c9b03; opacity: 0.5"/>
   </g>
   <g id="patch_48">
    <path d="M 251.056219 118.08 
L 255.155393 118.08 
L 255.155393 111.711756 
L 251.056219 111.711756 
z
" clip-path="url(#pb7cc69131d)" style="fill: #2c9b03; opacity: 0.5"/>
   </g>
   <g id="patch_49">
    <path d="M 255.155393 118.08 
L 259.254566 118.08 
L 259.254566 113.485191 
L 255.155393 113.485191 
z
" clip-path="url(#pb7cc69131d)" style="fill: #2c9b03; opacity: 0.5"/>
   </g>
   <g id="patch_50">
    <path d="M 259.254566 118.08 
L 263.35374 118.08 
L 263.35374 114.61374 
L 259.254566 114.61374 
z
" clip-path="url(#pb7cc69131d)" style="fill: #2c9b03; opacity: 0.5"/>
   </g>
   <g id="patch_51">
    <path d="M 263.35374 118.08 
L 267.452913 118.08 
L 267.452913 115.178015 
L 263.35374 115.178015 
z
" clip-path="url(#pb7cc69131d)" style="fill: #2c9b03; opacity: 0.5"/>
   </g>
   <g id="patch_52">
    <path d="M 267.452913 118.08 
L 271.552087 118.08 
L 271.552087 115.178015 
L 267.452913 115.178015 
z
" clip-path="url(#pb7cc69131d)" style="fill: #2c9b03; opacity: 0.5"/>
   </g>
   <g id="patch_53">
    <path d="M 271.552087 118.08 
L 275.65126 118.08 
L 275.65126 116.225954 
L 271.552087 116.225954 
z
" clip-path="url(#pb7cc69131d)" style="fill: #2c9b03; opacity: 0.5"/>
   </g>
   <g id="patch_54">
    <path d="M 275.65126 118.08 
L 279.750434 118.08 
L 279.750434 116.709618 
L 275.65126 116.709618 
z
" clip-path="url(#pb7cc69131d)" style="fill: #2c9b03; opacity: 0.5"/>
   </g>
   <g id="patch_55">
    <path d="M 279.750434 118.08 
L 283.849607 118.08 
L 283.849607 117.435115 
L 279.750434 117.435115 
z
" clip-path="url(#pb7cc69131d)" style="fill: #2c9b03; opacity: 0.5"/>
   </g>
   <g id="patch_56">
    <path d="M 283.849607 118.08 
L 287.948781 118.08 
L 287.948781 117.112672 
L 283.849607 117.112672 
z
" clip-path="url(#pb7cc69131d)" style="fill: #2c9b03; opacity: 0.5"/>
   </g>
   <g id="patch_57">
    <path d="M 287.948781 118.08 
L 292.047955 118.08 
L 292.047955 117.112672 
L 287.948781 117.112672 
z
" clip-path="url(#pb7cc69131d)" style="fill: #2c9b03; opacity: 0.5"/>
   </g>
   <g id="patch_58">
    <path d="M 292.047955 118.08 
L 296.147128 118.08 
L 296.147128 117.435115 
L 292.047955 117.435115 
z
" clip-path="url(#pb7cc69131d)" style="fill: #2c9b03; opacity: 0.5"/>
   </g>
   <g id="patch_59">
    <path d="M 296.147128 118.08 
L 300.246302 118.08 
L 300.246302 117.596336 
L 296.147128 117.596336 
z
" clip-path="url(#pb7cc69131d)" style="fill: #2c9b03; opacity: 0.5"/>
   </g>
   <g id="patch_60">
    <path d="M 300.246302 118.08 
L 304.345475 118.08 
L 304.345475 117.515725 
L 300.246302 117.515725 
z
" clip-path="url(#pb7cc69131d)" style="fill: #2c9b03; opacity: 0.5"/>
   </g>
   <g id="patch_61">
    <path d="M 304.345475 118.08 
L 308.444649 118.08 
L 308.444649 117.676947 
L 304.345475 117.676947 
z
" clip-path="url(#pb7cc69131d)" style="fill: #2c9b03; opacity: 0.5"/>
   </g>
   <g id="patch_62">
    <path d="M 308.444649 118.08 
L 312.543822 118.08 
L 312.543822 117.596336 
L 308.444649 117.596336 
z
" clip-path="url(#pb7cc69131d)" style="fill: #2c9b03; opacity: 0.5"/>
   </g>
   <g id="patch_63">
    <path d="M 312.543822 118.08 
L 316.642996 118.08 
L 316.642996 117.676947 
L 312.543822 117.676947 
z
" clip-path="url(#pb7cc69131d)" style="fill: #2c9b03; opacity: 0.5"/>
   </g>
   <g id="patch_64">
    <path d="M 316.642996 118.08 
L 320.742169 118.08 
L 320.742169 117.515725 
L 316.642996 117.515725 
z
" clip-path="url(#pb7cc69131d)" style="fill: #2c9b03; opacity: 0.5"/>
   </g>
   <g id="patch_65">
    <path d="M 320.742169 118.08 
L 324.841343 118.08 
L 324.841343 117.757557 
L 320.742169 117.757557 
z
" clip-path="url(#pb7cc69131d)" style="fill: #2c9b03; opacity: 0.5"/>
   </g>
   <g id="patch_66">
    <path d="M 324.841343 118.08 
L 328.940517 118.08 
L 328.940517 117.757557 
L 324.841343 117.757557 
z
" clip-path="url(#pb7cc69131d)" style="fill: #2c9b03; opacity: 0.5"/>
   </g>
   <g id="patch_67">
    <path d="M 328.940517 118.08 
L 333.03969 118.08 
L 333.03969 117.757557 
L 328.940517 117.757557 
z
" clip-path="url(#pb7cc69131d)" style="fill: #2c9b03; opacity: 0.5"/>
   </g>
   <g id="patch_68">
    <path d="M 333.03969 118.08 
L 337.138864 118.08 
L 337.138864 117.757557 
L 333.03969 117.757557 
z
" clip-path="url(#pb7cc69131d)" style="fill: #2c9b03; opacity: 0.5"/>
   </g>
   <g id="patch_69">
    <path d="M 337.138864 118.08 
L 341.238037 118.08 
L 341.238037 117.838168 
L 337.138864 117.838168 
z
" clip-path="url(#pb7cc69131d)" style="fill: #2c9b03; opacity: 0.5"/>
   </g>
   <g id="patch_70">
    <path d="M 341.238037 118.08 
L 345.337211 118.08 
L 345.337211 117.918779 
L 341.238037 117.918779 
z
" clip-path="url(#pb7cc69131d)" style="fill: #2c9b03; opacity: 0.5"/>
   </g>
   <g id="patch_71">
    <path d="M 345.337211 118.08 
L 349.436384 118.08 
L 349.436384 117.918779 
L 345.337211 117.918779 
z
" clip-path="url(#pb7cc69131d)" style="fill: #2c9b03; opacity: 0.5"/>
   </g>
   <g id="patch_72">
    <path d="M 349.436384 118.08 
L 353.535558 118.08 
L 353.535558 118.08 
L 349.436384 118.08 
z
" clip-path="url(#pb7cc69131d)" style="fill: #2c9b03; opacity: 0.5"/>
   </g>
   <g id="patch_73">
    <path d="M 353.535558 118.08 
L 357.634731 118.08 
L 357.634731 118.08 
L 353.535558 118.08 
z
" clip-path="url(#pb7cc69131d)" style="fill: #2c9b03; opacity: 0.5"/>
   </g>
   <g id="patch_74">
    <path d="M 357.634731 118.08 
L 361.733905 118.08 
L 361.733905 117.838168 
L 357.634731 117.838168 
z
" clip-path="url(#pb7cc69131d)" style="fill: #2c9b03; opacity: 0.5"/>
   </g>
   <g id="patch_75">
    <path d="M 361.733905 118.08 
L 365.833079 118.08 
L 365.833079 117.757557 
L 361.733905 117.757557 
z
" clip-path="url(#pb7cc69131d)" style="fill: #2c9b03; opacity: 0.5"/>
   </g>
   <g id="patch_76">
    <path d="M 365.833079 118.08 
L 369.932252 118.08 
L 369.932252 117.918779 
L 365.833079 117.918779 
z
" clip-path="url(#pb7cc69131d)" style="fill: #2c9b03; opacity: 0.5"/>
   </g>
   <g id="patch_77">
    <path d="M 369.932252 118.08 
L 374.031426 118.08 
L 374.031426 118.08 
L 369.932252 118.08 
z
" clip-path="url(#pb7cc69131d)" style="fill: #2c9b03; opacity: 0.5"/>
   </g>
   <g id="patch_78">
    <path d="M 374.031426 118.08 
L 378.130599 118.08 
L 378.130599 118.08 
L 374.031426 118.08 
z
" clip-path="url(#pb7cc69131d)" style="fill: #2c9b03; opacity: 0.5"/>
   </g>
   <g id="patch_79">
    <path d="M 378.130599 118.08 
L 382.229773 118.08 
L 382.229773 117.918779 
L 378.130599 117.918779 
z
" clip-path="url(#pb7cc69131d)" style="fill: #2c9b03; opacity: 0.5"/>
   </g>
   <g id="patch_80">
    <path d="M 382.229773 118.08 
L 386.328946 118.08 
L 386.328946 118.08 
L 382.229773 118.08 
z
" clip-path="url(#pb7cc69131d)" style="fill: #2c9b03; opacity: 0.5"/>
   </g>
   <g id="patch_81">
    <path d="M 386.328946 118.08 
L 390.42812 118.08 
L 390.42812 118.08 
L 386.328946 118.08 
z
" clip-path="url(#pb7cc69131d)" style="fill: #2c9b03; opacity: 0.5"/>
   </g>
   <g id="patch_82">
    <path d="M 390.42812 118.08 
L 394.527293 118.08 
L 394.527293 118.08 
L 390.42812 118.08 
z
" clip-path="url(#pb7cc69131d)" style="fill: #2c9b03; opacity: 0.5"/>
   </g>
   <g id="patch_83">
    <path d="M 394.527293 118.08 
L 398.626467 118.08 
L 398.626467 118.08 
L 394.527293 118.08 
z
" clip-path="url(#pb7cc69131d)" style="fill: #2c9b03; opacity: 0.5"/>
   </g>
   <g id="patch_84">
    <path d="M 398.626467 118.08 
L 402.72564 118.08 
L 402.72564 117.999389 
L 398.626467 117.999389 
z
" clip-path="url(#pb7cc69131d)" style="fill: #2c9b03; opacity: 0.5"/>
   </g>
   <g id="patch_85">
    <path d="M 402.72564 118.08 
L 406.824814 118.08 
L 406.824814 118.08 
L 402.72564 118.08 
z
" clip-path="url(#pb7cc69131d)" style="fill: #2c9b03; opacity: 0.5"/>
   </g>
   <g id="patch_86">
    <path d="M 406.824814 118.08 
L 410.923988 118.08 
L 410.923988 118.08 
L 406.824814 118.08 
z
" clip-path="url(#pb7cc69131d)" style="fill: #2c9b03; opacity: 0.5"/>
   </g>
   <g id="patch_87">
    <path d="M 410.923988 118.08 
L 415.023161 118.08 
L 415.023161 118.08 
L 410.923988 118.08 
z
" clip-path="url(#pb7cc69131d)" style="fill: #2c9b03; opacity: 0.5"/>
   </g>
   <g id="patch_88">
    <path d="M 415.023161 118.08 
L 419.122335 118.08 
L 419.122335 118.08 
L 415.023161 118.08 
z
" clip-path="url(#pb7cc69131d)" style="fill: #2c9b03; opacity: 0.5"/>
   </g>
   <g id="patch_89">
    <path d="M 419.122335 118.08 
L 423.221508 118.08 
L 423.221508 118.08 
L 419.122335 118.08 
z
" clip-path="url(#pb7cc69131d)" style="fill: #2c9b03; opacity: 0.5"/>
   </g>
   <g id="patch_90">
    <path d="M 423.221508 118.08 
L 427.320682 118.08 
L 427.320682 118.08 
L 423.221508 118.08 
z
" clip-path="url(#pb7cc69131d)" style="fill: #2c9b03; opacity: 0.5"/>
   </g>
   <g id="patch_91">
    <path d="M 427.320682 118.08 
L 431.419855 118.08 
L 431.419855 118.08 
L 427.320682 118.08 
z
" clip-path="url(#pb7cc69131d)" style="fill: #2c9b03; opacity: 0.5"/>
   </g>
   <g id="patch_92">
    <path d="M 431.419855 118.08 
L 435.519029 118.08 
L 435.519029 118.08 
L 431.419855 118.08 
z
" clip-path="url(#pb7cc69131d)" style="fill: #2c9b03; opacity: 0.5"/>
   </g>
   <g id="patch_93">
    <path d="M 435.519029 118.08 
L 439.618202 118.08 
L 439.618202 118.08 
L 435.519029 118.08 
z
" clip-path="url(#pb7cc69131d)" style="fill: #2c9b03; opacity: 0.5"/>
   </g>
   <g id="patch_94">
    <path d="M 439.618202 118.08 
L 443.717376 118.08 
L 443.717376 117.999389 
L 439.618202 117.999389 
z
" clip-path="url(#pb7cc69131d)" style="fill: #2c9b03; opacity: 0.5"/>
   </g>
   <g id="patch_95">
    <path d="M 443.717376 118.08 
L 447.81655 118.08 
L 447.81655 118.08 
L 443.717376 118.08 
z
" clip-path="url(#pb7cc69131d)" style="fill: #2c9b03; opacity: 0.5"/>
   </g>
   <g id="patch_96">
    <path d="M 447.81655 118.08 
L 451.915723 118.08 
L 451.915723 118.08 
L 447.81655 118.08 
z
" clip-path="url(#pb7cc69131d)" style="fill: #2c9b03; opacity: 0.5"/>
   </g>
   <g id="patch_97">
    <path d="M 451.915723 118.08 
L 456.014897 118.08 
L 456.014897 118.08 
L 451.915723 118.08 
z
" clip-path="url(#pb7cc69131d)" style="fill: #2c9b03; opacity: 0.5"/>
   </g>
   <g id="patch_98">
    <path d="M 456.014897 118.08 
L 460.11407 118.08 
L 460.11407 118.08 
L 456.014897 118.08 
z
" clip-path="url(#pb7cc69131d)" style="fill: #2c9b03; opacity: 0.5"/>
   </g>
   <g id="patch_99">
    <path d="M 460.11407 118.08 
L 464.213244 118.08 
L 464.213244 118.08 
L 460.11407 118.08 
z
" clip-path="url(#pb7cc69131d)" style="fill: #2c9b03; opacity: 0.5"/>
   </g>
   <g id="patch_100">
    <path d="M 464.213244 118.08 
L 468.312417 118.08 
L 468.312417 118.08 
L 464.213244 118.08 
z
" clip-path="url(#pb7cc69131d)" style="fill: #2c9b03; opacity: 0.5"/>
   </g>
   <g id="patch_101">
    <path d="M 468.312417 118.08 
L 472.411591 118.08 
L 472.411591 118.08 
L 468.312417 118.08 
z
" clip-path="url(#pb7cc69131d)" style="fill: #2c9b03; opacity: 0.5"/>
   </g>
   <g id="patch_102">
    <path d="M 66.593409 118.08 
L 70.692583 118.08 
L 70.692583 114.694351 
L 66.593409 114.694351 
z
" clip-path="url(#pb7cc69131d)" style="fill: #051cb2; opacity: 0.5"/>
   </g>
   <g id="patch_103">
    <path d="M 70.692583 118.08 
L 74.791756 118.08 
L 74.791756 114.694351 
L 70.692583 114.694351 
z
" clip-path="url(#pb7cc69131d)" style="fill: #051cb2; opacity: 0.5"/>
   </g>
   <g id="patch_104">
    <path d="M 74.791756 118.08 
L 78.89093 118.08 
L 78.89093 113.565802 
L 74.791756 113.565802 
z
" clip-path="url(#pb7cc69131d)" style="fill: #051cb2; opacity: 0.5"/>
   </g>
   <g id="patch_105">
    <path d="M 78.89093 118.08 
L 82.990103 118.08 
L 82.990103 112.517863 
L 78.89093 112.517863 
z
" clip-path="url(#pb7cc69131d)" style="fill: #051cb2; opacity: 0.5"/>
   </g>
   <g id="patch_106">
    <path d="M 82.990103 118.08 
L 87.089277 118.08 
L 87.089277 112.276031 
L 82.990103 112.276031 
z
" clip-path="url(#pb7cc69131d)" style="fill: #051cb2; opacity: 0.5"/>
   </g>
   <g id="patch_107">
    <path d="M 87.089277 118.08 
L 91.18845 118.08 
L 91.18845 110.663817 
L 87.089277 110.663817 
z
" clip-path="url(#pb7cc69131d)" style="fill: #051cb2; opacity: 0.5"/>
   </g>
   <g id="patch_108">
    <path d="M 91.18845 118.08 
L 95.287624 118.08 
L 95.287624 110.099542 
L 91.18845 110.099542 
z
" clip-path="url(#pb7cc69131d)" style="fill: #051cb2; opacity: 0.5"/>
   </g>
   <g id="patch_109">
    <path d="M 95.287624 118.08 
L 99.386798 118.08 
L 99.386798 109.374046 
L 95.287624 109.374046 
z
" clip-path="url(#pb7cc69131d)" style="fill: #051cb2; opacity: 0.5"/>
   </g>
   <g id="patch_110">
    <path d="M 99.386798 118.08 
L 103.485971 118.08 
L 103.485971 108.567939 
L 99.386798 108.567939 
z
" clip-path="url(#pb7cc69131d)" style="fill: #051cb2; opacity: 0.5"/>
   </g>
   <g id="patch_111">
    <path d="M 103.485971 118.08 
L 107.585145 118.08 
L 107.585145 105.988397 
L 103.485971 105.988397 
z
" clip-path="url(#pb7cc69131d)" style="fill: #051cb2; opacity: 0.5"/>
   </g>
   <g id="patch_112">
    <path d="M 107.585145 118.08 
L 111.684318 118.08 
L 111.684318 107.600611 
L 107.585145 107.600611 
z
" clip-path="url(#pb7cc69131d)" style="fill: #051cb2; opacity: 0.5"/>
   </g>
   <g id="patch_113">
    <path d="M 111.684318 118.08 
L 115.783492 118.08 
L 115.783492 104.779237 
L 111.684318 104.779237 
z
" clip-path="url(#pb7cc69131d)" style="fill: #051cb2; opacity: 0.5"/>
   </g>
   <g id="patch_114">
    <path d="M 115.783492 118.08 
L 119.882665 118.08 
L 119.882665 105.504733 
L 115.783492 105.504733 
z
" clip-path="url(#pb7cc69131d)" style="fill: #051cb2; opacity: 0.5"/>
   </g>
   <g id="patch_115">
    <path d="M 119.882665 118.08 
L 123.981839 118.08 
L 123.981839 102.038473 
L 119.882665 102.038473 
z
" clip-path="url(#pb7cc69131d)" style="fill: #051cb2; opacity: 0.5"/>
   </g>
   <g id="patch_116">
    <path d="M 123.981839 118.08 
L 128.081012 118.08 
L 128.081012 100.587481 
L 123.981839 100.587481 
z
" clip-path="url(#pb7cc69131d)" style="fill: #051cb2; opacity: 0.5"/>
   </g>
   <g id="patch_117">
    <path d="M 128.081012 118.08 
L 132.180186 118.08 
L 132.180186 100.829313 
L 128.081012 100.829313 
z
" clip-path="url(#pb7cc69131d)" style="fill: #051cb2; opacity: 0.5"/>
   </g>
   <g id="patch_118">
    <path d="M 132.180186 118.08 
L 136.27936 118.08 
L 136.27936 99.781374 
L 132.180186 99.781374 
z
" clip-path="url(#pb7cc69131d)" style="fill: #051cb2; opacity: 0.5"/>
   </g>
   <g id="patch_119">
    <path d="M 136.27936 118.08 
L 140.378533 118.08 
L 140.378533 97.604885 
L 136.27936 97.604885 
z
" clip-path="url(#pb7cc69131d)" style="fill: #051cb2; opacity: 0.5"/>
   </g>
   <g id="patch_120">
    <path d="M 140.378533 118.08 
L 144.477707 118.08 
L 144.477707 96.879389 
L 140.378533 96.879389 
z
" clip-path="url(#pb7cc69131d)" style="fill: #051cb2; opacity: 0.5"/>
   </g>
   <g id="patch_121">
    <path d="M 144.477707 118.08 
L 148.57688 118.08 
L 148.57688 96.395725 
L 144.477707 96.395725 
z
" clip-path="url(#pb7cc69131d)" style="fill: #051cb2; opacity: 0.5"/>
   </g>
   <g id="patch_122">
    <path d="M 148.57688 118.08 
L 152.676054 118.08 
L 152.676054 95.589618 
L 148.57688 95.589618 
z
" clip-path="url(#pb7cc69131d)" style="fill: #051cb2; opacity: 0.5"/>
   </g>
   <g id="patch_123">
    <path d="M 152.676054 118.08 
L 156.775227 118.08 
L 156.775227 93.332519 
L 152.676054 93.332519 
z
" clip-path="url(#pb7cc69131d)" style="fill: #051cb2; opacity: 0.5"/>
   </g>
   <g id="patch_124">
    <path d="M 156.775227 118.08 
L 160.874401 118.08 
L 160.874401 94.380458 
L 156.775227 94.380458 
z
" clip-path="url(#pb7cc69131d)" style="fill: #051cb2; opacity: 0.5"/>
   </g>
   <g id="patch_125">
    <path d="M 160.874401 118.08 
L 164.973574 118.08 
L 164.973574 92.768244 
L 160.874401 92.768244 
z
" clip-path="url(#pb7cc69131d)" style="fill: #051cb2; opacity: 0.5"/>
   </g>
   <g id="patch_126">
    <path d="M 164.973574 118.08 
L 169.072748 118.08 
L 169.072748 92.445802 
L 164.973574 92.445802 
z
" clip-path="url(#pb7cc69131d)" style="fill: #051cb2; opacity: 0.5"/>
   </g>
   <g id="patch_127">
    <path d="M 169.072748 118.08 
L 173.171921 118.08 
L 173.171921 91.800916 
L 169.072748 91.800916 
z
" clip-path="url(#pb7cc69131d)" style="fill: #051cb2; opacity: 0.5"/>
   </g>
   <g id="patch_128">
    <path d="M 173.171921 118.08 
L 177.271095 118.08 
L 177.271095 90.027481 
L 173.171921 90.027481 
z
" clip-path="url(#pb7cc69131d)" style="fill: #051cb2; opacity: 0.5"/>
   </g>
   <g id="patch_129">
    <path d="M 177.271095 118.08 
L 181.370269 118.08 
L 181.370269 89.543817 
L 177.271095 89.543817 
z
" clip-path="url(#pb7cc69131d)" style="fill: #051cb2; opacity: 0.5"/>
   </g>
   <g id="patch_130">
    <path d="M 181.370269 118.08 
L 185.469442 118.08 
L 185.469442 86.4 
L 181.370269 86.4 
z
" clip-path="url(#pb7cc69131d)" style="fill: #051cb2; opacity: 0.5"/>
   </g>
   <g id="patch_131">
    <path d="M 185.469442 118.08 
L 189.568616 118.08 
L 189.568616 85.674504 
L 185.469442 85.674504 
z
" clip-path="url(#pb7cc69131d)" style="fill: #051cb2; opacity: 0.5"/>
   </g>
   <g id="patch_132">
    <path d="M 189.568616 118.08 
L 193.667789 118.08 
L 193.667789 84.949008 
L 189.568616 84.949008 
z
" clip-path="url(#pb7cc69131d)" style="fill: #051cb2; opacity: 0.5"/>
   </g>
   <g id="patch_133">
    <path d="M 193.667789 118.08 
L 197.766963 118.08 
L 197.766963 81.160305 
L 193.667789 81.160305 
z
" clip-path="url(#pb7cc69131d)" style="fill: #051cb2; opacity: 0.5"/>
   </g>
   <g id="patch_134">
    <path d="M 197.766963 118.08 
L 201.866136 118.08 
L 201.866136 79.951145 
L 197.766963 79.951145 
z
" clip-path="url(#pb7cc69131d)" style="fill: #051cb2; opacity: 0.5"/>
   </g>
   <g id="patch_135">
    <path d="M 201.866136 118.08 
L 205.96531 118.08 
L 205.96531 79.789924 
L 201.866136 79.789924 
z
" clip-path="url(#pb7cc69131d)" style="fill: #051cb2; opacity: 0.5"/>
   </g>
   <g id="patch_136">
    <path d="M 205.96531 118.08 
L 210.064483 118.08 
L 210.064483 79.548092 
L 205.96531 79.548092 
z
" clip-path="url(#pb7cc69131d)" style="fill: #051cb2; opacity: 0.5"/>
   </g>
   <g id="patch_137">
    <path d="M 210.064483 118.08 
L 214.163657 118.08 
L 214.163657 78.903206 
L 210.064483 78.903206 
z
" clip-path="url(#pb7cc69131d)" style="fill: #051cb2; opacity: 0.5"/>
   </g>
   <g id="patch_138">
    <path d="M 214.163657 118.08 
L 218.262831 118.08 
L 218.262831 76.162443 
L 214.163657 76.162443 
z
" clip-path="url(#pb7cc69131d)" style="fill: #051cb2; opacity: 0.5"/>
   </g>
   <g id="patch_139">
    <path d="M 218.262831 118.08 
L 222.362004 118.08 
L 222.362004 80.192977 
L 218.262831 80.192977 
z
" clip-path="url(#pb7cc69131d)" style="fill: #051cb2; opacity: 0.5"/>
   </g>
   <g id="patch_140">
    <path d="M 222.362004 118.08 
L 226.461178 118.08 
L 226.461178 79.951145 
L 222.362004 79.951145 
z
" clip-path="url(#pb7cc69131d)" style="fill: #051cb2; opacity: 0.5"/>
   </g>
   <g id="patch_141">
    <path d="M 226.461178 118.08 
L 230.560351 118.08 
L 230.560351 82.369466 
L 226.461178 82.369466 
z
" clip-path="url(#pb7cc69131d)" style="fill: #051cb2; opacity: 0.5"/>
   </g>
   <g id="patch_142">
    <path d="M 230.560351 118.08 
L 234.659525 118.08 
L 234.659525 81.72458 
L 230.560351 81.72458 
z
" clip-path="url(#pb7cc69131d)" style="fill: #051cb2; opacity: 0.5"/>
   </g>
   <g id="patch_143">
    <path d="M 234.659525 118.08 
L 238.758698 118.08 
L 238.758698 86.964275 
L 234.659525 86.964275 
z
" clip-path="url(#pb7cc69131d)" style="fill: #051cb2; opacity: 0.5"/>
   </g>
   <g id="patch_144">
    <path d="M 238.758698 118.08 
L 242.857872 118.08 
L 242.857872 86.722443 
L 238.758698 86.722443 
z
" clip-path="url(#pb7cc69131d)" style="fill: #051cb2; opacity: 0.5"/>
   </g>
   <g id="patch_145">
    <path d="M 242.857872 118.08 
L 246.957045 118.08 
L 246.957045 89.382595 
L 242.857872 89.382595 
z
" clip-path="url(#pb7cc69131d)" style="fill: #051cb2; opacity: 0.5"/>
   </g>
   <g id="patch_146">
    <path d="M 246.957045 118.08 
L 251.056219 118.08 
L 251.056219 88.495878 
L 246.957045 88.495878 
z
" clip-path="url(#pb7cc69131d)" style="fill: #051cb2; opacity: 0.5"/>
   </g>
   <g id="patch_147">
    <path d="M 251.056219 118.08 
L 255.155393 118.08 
L 255.155393 95.83145 
L 251.056219 95.83145 
z
" clip-path="url(#pb7cc69131d)" style="fill: #051cb2; opacity: 0.5"/>
   </g>
   <g id="patch_148">
    <path d="M 255.155393 118.08 
L 259.254566 118.08 
L 259.254566 96.073282 
L 255.155393 96.073282 
z
" clip-path="url(#pb7cc69131d)" style="fill: #051cb2; opacity: 0.5"/>
   </g>
   <g id="patch_149">
    <path d="M 259.254566 118.08 
L 263.35374 118.08 
L 263.35374 95.670229 
L 259.254566 95.670229 
z
" clip-path="url(#pb7cc69131d)" style="fill: #051cb2; opacity: 0.5"/>
   </g>
   <g id="patch_150">
    <path d="M 263.35374 118.08 
L 267.452913 118.08 
L 267.452913 98.814046 
L 263.35374 98.814046 
z
" clip-path="url(#pb7cc69131d)" style="fill: #051cb2; opacity: 0.5"/>
   </g>
   <g id="patch_151">
    <path d="M 267.452913 118.08 
L 271.552087 118.08 
L 271.552087 100.023206 
L 267.452913 100.023206 
z
" clip-path="url(#pb7cc69131d)" style="fill: #051cb2; opacity: 0.5"/>
   </g>
   <g id="patch_152">
    <path d="M 271.552087 118.08 
L 275.65126 118.08 
L 275.65126 100.587481 
L 271.552087 100.587481 
z
" clip-path="url(#pb7cc69131d)" style="fill: #051cb2; opacity: 0.5"/>
   </g>
   <g id="patch_153">
    <path d="M 275.65126 118.08 
L 279.750434 118.08 
L 279.750434 102.925191 
L 275.65126 102.925191 
z
" clip-path="url(#pb7cc69131d)" style="fill: #051cb2; opacity: 0.5"/>
   </g>
   <g id="patch_154">
    <path d="M 279.750434 118.08 
L 283.849607 118.08 
L 283.849607 103.408855 
L 279.750434 103.408855 
z
" clip-path="url(#pb7cc69131d)" style="fill: #051cb2; opacity: 0.5"/>
   </g>
   <g id="patch_155">
    <path d="M 283.849607 118.08 
L 287.948781 118.08 
L 287.948781 104.618015 
L 283.849607 104.618015 
z
" clip-path="url(#pb7cc69131d)" style="fill: #051cb2; opacity: 0.5"/>
   </g>
   <g id="patch_156">
    <path d="M 287.948781 118.08 
L 292.047955 118.08 
L 292.047955 103.086412 
L 287.948781 103.086412 
z
" clip-path="url(#pb7cc69131d)" style="fill: #051cb2; opacity: 0.5"/>
   </g>
   <g id="patch_157">
    <path d="M 292.047955 118.08 
L 296.147128 118.08 
L 296.147128 105.907786 
L 292.047955 105.907786 
z
" clip-path="url(#pb7cc69131d)" style="fill: #051cb2; opacity: 0.5"/>
   </g>
   <g id="patch_158">
    <path d="M 296.147128 118.08 
L 300.246302 118.08 
L 300.246302 105.827176 
L 296.147128 105.827176 
z
" clip-path="url(#pb7cc69131d)" style="fill: #051cb2; opacity: 0.5"/>
   </g>
   <g id="patch_159">
    <path d="M 300.246302 118.08 
L 304.345475 118.08 
L 304.345475 105.746565 
L 300.246302 105.746565 
z
" clip-path="url(#pb7cc69131d)" style="fill: #051cb2; opacity: 0.5"/>
   </g>
   <g id="patch_160">
    <path d="M 304.345475 118.08 
L 308.444649 118.08 
L 308.444649 106.39145 
L 304.345475 106.39145 
z
" clip-path="url(#pb7cc69131d)" style="fill: #051cb2; opacity: 0.5"/>
   </g>
   <g id="patch_161">
    <path d="M 308.444649 118.08 
L 312.543822 118.08 
L 312.543822 107.923053 
L 308.444649 107.923053 
z
" clip-path="url(#pb7cc69131d)" style="fill: #051cb2; opacity: 0.5"/>
   </g>
   <g id="patch_162">
    <path d="M 312.543822 118.08 
L 316.642996 118.08 
L 316.642996 105.988397 
L 312.543822 105.988397 
z
" clip-path="url(#pb7cc69131d)" style="fill: #051cb2; opacity: 0.5"/>
   </g>
   <g id="patch_163">
    <path d="M 316.642996 118.08 
L 320.742169 118.08 
L 320.742169 107.761832 
L 316.642996 107.761832 
z
" clip-path="url(#pb7cc69131d)" style="fill: #051cb2; opacity: 0.5"/>
   </g>
   <g id="patch_164">
    <path d="M 320.742169 118.08 
L 324.841343 118.08 
L 324.841343 108.487328 
L 320.742169 108.487328 
z
" clip-path="url(#pb7cc69131d)" style="fill: #051cb2; opacity: 0.5"/>
   </g>
   <g id="patch_165">
    <path d="M 324.841343 118.08 
L 328.940517 118.08 
L 328.940517 108.164885 
L 324.841343 108.164885 
z
" clip-path="url(#pb7cc69131d)" style="fill: #051cb2; opacity: 0.5"/>
   </g>
   <g id="patch_166">
    <path d="M 328.940517 118.08 
L 333.03969 118.08 
L 333.03969 111.228092 
L 328.940517 111.228092 
z
" clip-path="url(#pb7cc69131d)" style="fill: #051cb2; opacity: 0.5"/>
   </g>
   <g id="patch_167">
    <path d="M 333.03969 118.08 
L 337.138864 118.08 
L 337.138864 108.970992 
L 333.03969 108.970992 
z
" clip-path="url(#pb7cc69131d)" style="fill: #051cb2; opacity: 0.5"/>
   </g>
   <g id="patch_168">
    <path d="M 337.138864 118.08 
L 341.238037 118.08 
L 341.238037 109.85771 
L 337.138864 109.85771 
z
" clip-path="url(#pb7cc69131d)" style="fill: #051cb2; opacity: 0.5"/>
   </g>
   <g id="patch_169">
    <path d="M 341.238037 118.08 
L 345.337211 118.08 
L 345.337211 111.792366 
L 341.238037 111.792366 
z
" clip-path="url(#pb7cc69131d)" style="fill: #051cb2; opacity: 0.5"/>
   </g>
   <g id="patch_170">
    <path d="M 345.337211 118.08 
L 349.436384 118.08 
L 349.436384 111.308702 
L 345.337211 111.308702 
z
" clip-path="url(#pb7cc69131d)" style="fill: #051cb2; opacity: 0.5"/>
   </g>
   <g id="patch_171">
    <path d="M 349.436384 118.08 
L 353.535558 118.08 
L 353.535558 112.276031 
L 349.436384 112.276031 
z
" clip-path="url(#pb7cc69131d)" style="fill: #051cb2; opacity: 0.5"/>
   </g>
   <g id="patch_172">
    <path d="M 353.535558 118.08 
L 357.634731 118.08 
L 357.634731 112.598473 
L 353.535558 112.598473 
z
" clip-path="url(#pb7cc69131d)" style="fill: #051cb2; opacity: 0.5"/>
   </g>
   <g id="patch_173">
    <path d="M 357.634731 118.08 
L 361.733905 118.08 
L 361.733905 112.356641 
L 357.634731 112.356641 
z
" clip-path="url(#pb7cc69131d)" style="fill: #051cb2; opacity: 0.5"/>
   </g>
   <g id="patch_174">
    <path d="M 361.733905 118.08 
L 365.833079 118.08 
L 365.833079 112.276031 
L 361.733905 112.276031 
z
" clip-path="url(#pb7cc69131d)" style="fill: #051cb2; opacity: 0.5"/>
   </g>
   <g id="patch_175">
    <path d="M 365.833079 118.08 
L 369.932252 118.08 
L 369.932252 113.001527 
L 365.833079 113.001527 
z
" clip-path="url(#pb7cc69131d)" style="fill: #051cb2; opacity: 0.5"/>
   </g>
   <g id="patch_176">
    <path d="M 369.932252 118.08 
L 374.031426 118.08 
L 374.031426 112.759695 
L 369.932252 112.759695 
z
" clip-path="url(#pb7cc69131d)" style="fill: #051cb2; opacity: 0.5"/>
   </g>
   <g id="patch_177">
    <path d="M 374.031426 118.08 
L 378.130599 118.08 
L 378.130599 114.130076 
L 374.031426 114.130076 
z
" clip-path="url(#pb7cc69131d)" style="fill: #051cb2; opacity: 0.5"/>
   </g>
   <g id="patch_178">
    <path d="M 378.130599 118.08 
L 382.229773 118.08 
L 382.229773 113.727023 
L 378.130599 113.727023 
z
" clip-path="url(#pb7cc69131d)" style="fill: #051cb2; opacity: 0.5"/>
   </g>
   <g id="patch_179">
    <path d="M 382.229773 118.08 
L 386.328946 118.08 
L 386.328946 113.565802 
L 382.229773 113.565802 
z
" clip-path="url(#pb7cc69131d)" style="fill: #051cb2; opacity: 0.5"/>
   </g>
   <g id="patch_180">
    <path d="M 386.328946 118.08 
L 390.42812 118.08 
L 390.42812 112.517863 
L 386.328946 112.517863 
z
" clip-path="url(#pb7cc69131d)" style="fill: #051cb2; opacity: 0.5"/>
   </g>
   <g id="patch_181">
    <path d="M 390.42812 118.08 
L 394.527293 118.08 
L 394.527293 114.61374 
L 390.42812 114.61374 
z
" clip-path="url(#pb7cc69131d)" style="fill: #051cb2; opacity: 0.5"/>
   </g>
   <g id="patch_182">
    <path d="M 394.527293 118.08 
L 398.626467 118.08 
L 398.626467 114.371908 
L 394.527293 114.371908 
z
" clip-path="url(#pb7cc69131d)" style="fill: #051cb2; opacity: 0.5"/>
   </g>
   <g id="patch_183">
    <path d="M 398.626467 118.08 
L 402.72564 118.08 
L 402.72564 115.419847 
L 398.626467 115.419847 
z
" clip-path="url(#pb7cc69131d)" style="fill: #051cb2; opacity: 0.5"/>
   </g>
   <g id="patch_184">
    <path d="M 402.72564 118.08 
L 406.824814 118.08 
L 406.824814 114.694351 
L 402.72564 114.694351 
z
" clip-path="url(#pb7cc69131d)" style="fill: #051cb2; opacity: 0.5"/>
   </g>
   <g id="patch_185">
    <path d="M 406.824814 118.08 
L 410.923988 118.08 
L 410.923988 115.258626 
L 406.824814 115.258626 
z
" clip-path="url(#pb7cc69131d)" style="fill: #051cb2; opacity: 0.5"/>
   </g>
   <g id="patch_186">
    <path d="M 410.923988 118.08 
L 415.023161 118.08 
L 415.023161 115.419847 
L 410.923988 115.419847 
z
" clip-path="url(#pb7cc69131d)" style="fill: #051cb2; opacity: 0.5"/>
   </g>
   <g id="patch_187">
    <path d="M 415.023161 118.08 
L 419.122335 118.08 
L 419.122335 115.339237 
L 415.023161 115.339237 
z
" clip-path="url(#pb7cc69131d)" style="fill: #051cb2; opacity: 0.5"/>
   </g>
   <g id="patch_188">
    <path d="M 419.122335 118.08 
L 423.221508 118.08 
L 423.221508 116.064733 
L 419.122335 116.064733 
z
" clip-path="url(#pb7cc69131d)" style="fill: #051cb2; opacity: 0.5"/>
   </g>
   <g id="patch_189">
    <path d="M 423.221508 118.08 
L 427.320682 118.08 
L 427.320682 115.581069 
L 423.221508 115.581069 
z
" clip-path="url(#pb7cc69131d)" style="fill: #051cb2; opacity: 0.5"/>
   </g>
   <g id="patch_190">
    <path d="M 427.320682 118.08 
L 431.419855 118.08 
L 431.419855 116.064733 
L 427.320682 116.064733 
z
" clip-path="url(#pb7cc69131d)" style="fill: #051cb2; opacity: 0.5"/>
   </g>
   <g id="patch_191">
    <path d="M 431.419855 118.08 
L 435.519029 118.08 
L 435.519029 116.306565 
L 431.419855 116.306565 
z
" clip-path="url(#pb7cc69131d)" style="fill: #051cb2; opacity: 0.5"/>
   </g>
   <g id="patch_192">
    <path d="M 435.519029 118.08 
L 439.618202 118.08 
L 439.618202 116.548397 
L 435.519029 116.548397 
z
" clip-path="url(#pb7cc69131d)" style="fill: #051cb2; opacity: 0.5"/>
   </g>
   <g id="patch_193">
    <path d="M 439.618202 118.08 
L 443.717376 118.08 
L 443.717376 116.709618 
L 439.618202 116.709618 
z
" clip-path="url(#pb7cc69131d)" style="fill: #051cb2; opacity: 0.5"/>
   </g>
   <g id="patch_194">
    <path d="M 443.717376 118.08 
L 447.81655 118.08 
L 447.81655 116.790229 
L 443.717376 116.790229 
z
" clip-path="url(#pb7cc69131d)" style="fill: #051cb2; opacity: 0.5"/>
   </g>
   <g id="patch_195">
    <path d="M 447.81655 118.08 
L 451.915723 118.08 
L 451.915723 116.548397 
L 447.81655 116.548397 
z
" clip-path="url(#pb7cc69131d)" style="fill: #051cb2; opacity: 0.5"/>
   </g>
   <g id="patch_196">
    <path d="M 451.915723 118.08 
L 456.014897 118.08 
L 456.014897 116.306565 
L 451.915723 116.306565 
z
" clip-path="url(#pb7cc69131d)" style="fill: #051cb2; opacity: 0.5"/>
   </g>
   <g id="patch_197">
    <path d="M 456.014897 118.08 
L 460.11407 118.08 
L 460.11407 116.629008 
L 456.014897 116.629008 
z
" clip-path="url(#pb7cc69131d)" style="fill: #051cb2; opacity: 0.5"/>
   </g>
   <g id="patch_198">
    <path d="M 460.11407 118.08 
L 464.213244 118.08 
L 464.213244 117.273893 
L 460.11407 117.273893 
z
" clip-path="url(#pb7cc69131d)" style="fill: #051cb2; opacity: 0.5"/>
   </g>
   <g id="patch_199">
    <path d="M 464.213244 118.08 
L 468.312417 118.08 
L 468.312417 116.790229 
L 464.213244 116.790229 
z
" clip-path="url(#pb7cc69131d)" style="fill: #051cb2; opacity: 0.5"/>
   </g>
   <g id="patch_200">
    <path d="M 468.312417 118.08 
L 472.411591 118.08 
L 472.411591 117.354504 
L 468.312417 117.354504 
z
" clip-path="url(#pb7cc69131d)" style="fill: #051cb2; opacity: 0.5"/>
   </g>
   <g id="matplotlib.axis_1">
    <g id="xtick_1">
     <g id="line2d_1">
      <defs>
       <path id="m8c06175076" d="M 0 0 
L 0 3.5 
" style="stroke: #000000; stroke-width: 0.8"/>
      </defs>
      <g>
       <use xlink:href="#m8c06175076" x="47.528728" y="118.08" style="stroke: #000000; stroke-width: 0.8"/>
      </g>
     </g>
     <g id="text_1">
      <!-- 0.4 -->
      <g transform="translate(41.167478 131.15875) scale(0.08 -0.08)">
       <defs>
        <path id="DejaVuSerif-30" d="M 2034 219 
Q 2513 219 2750 744 
Q 2988 1269 2988 2328 
Q 2988 3391 2750 3916 
Q 2513 4441 2034 4441 
Q 1556 4441 1318 3916 
Q 1081 3391 1081 2328 
Q 1081 1269 1318 744 
Q 1556 219 2034 219 
z
M 2034 -91 
Q 1275 -91 848 546 
Q 422 1184 422 2328 
Q 422 3475 848 4112 
Q 1275 4750 2034 4750 
Q 2797 4750 3222 4112 
Q 3647 3475 3647 2328 
Q 3647 1184 3222 546 
Q 2797 -91 2034 -91 
z
" transform="scale(0.015625)"/>
        <path id="DejaVuSerif-2e" d="M 603 325 
Q 603 500 722 622 
Q 841 744 1019 744 
Q 1191 744 1312 622 
Q 1434 500 1434 325 
Q 1434 153 1312 31 
Q 1191 -91 1019 -91 
Q 841 -91 722 29 
Q 603 150 603 325 
z
" transform="scale(0.015625)"/>
        <path id="DejaVuSerif-34" d="M 2234 1581 
L 2234 4063 
L 641 1581 
L 2234 1581 
z
M 3609 0 
L 1484 0 
L 1484 331 
L 2234 331 
L 2234 1247 
L 197 1247 
L 197 1588 
L 2241 4750 
L 2859 4750 
L 2859 1581 
L 3750 1581 
L 3750 1247 
L 2859 1247 
L 2859 331 
L 3609 331 
L 3609 0 
z
" transform="scale(0.015625)"/>
       </defs>
       <use xlink:href="#DejaVuSerif-30"/>
       <use xlink:href="#DejaVuSerif-2e" x="63.623047"/>
       <use xlink:href="#DejaVuSerif-34" x="95.410156"/>
      </g>
     </g>
    </g>
    <g id="xtick_2">
     <g id="line2d_2">
      <g>
       <use xlink:href="#m8c06175076" x="101.829472" y="118.08" style="stroke: #000000; stroke-width: 0.8"/>
      </g>
     </g>
     <g id="text_2">
      <!-- 0.6 -->
      <g transform="translate(95.468222 131.15875) scale(0.08 -0.08)">
       <defs>
        <path id="DejaVuSerif-36" d="M 2094 219 
Q 2534 219 2771 542 
Q 3009 866 3009 1472 
Q 3009 2078 2771 2401 
Q 2534 2725 2094 2725 
Q 1647 2725 1412 2412 
Q 1178 2100 1178 1509 
Q 1178 888 1415 553 
Q 1653 219 2094 219 
z
M 1075 2569 
Q 1288 2803 1556 2918 
Q 1825 3034 2163 3034 
Q 2859 3034 3264 2615 
Q 3669 2197 3669 1472 
Q 3669 763 3233 336 
Q 2797 -91 2069 -91 
Q 1278 -91 853 498 
Q 428 1088 428 2181 
Q 428 3406 931 4078 
Q 1434 4750 2350 4750 
Q 2597 4750 2869 4703 
Q 3141 4656 3425 4563 
L 3425 3794 
L 3072 3794 
Q 3034 4109 2831 4275 
Q 2628 4441 2284 4441 
Q 1678 4441 1381 3981 
Q 1084 3522 1075 2569 
z
" transform="scale(0.015625)"/>
       </defs>
       <use xlink:href="#DejaVuSerif-30"/>
       <use xlink:href="#DejaVuSerif-2e" x="63.623047"/>
       <use xlink:href="#DejaVuSerif-36" x="95.410156"/>
      </g>
     </g>
    </g>
    <g id="xtick_3">
     <g id="line2d_3">
      <g>
       <use xlink:href="#m8c06175076" x="156.130215" y="118.08" style="stroke: #000000; stroke-width: 0.8"/>
      </g>
     </g>
     <g id="text_3">
      <!-- 0.8 -->
      <g transform="translate(149.768965 131.15875) scale(0.08 -0.08)">
       <defs>
        <path id="DejaVuSerif-38" d="M 2981 1275 
Q 2981 1775 2732 2051 
Q 2484 2328 2034 2328 
Q 1584 2328 1336 2051 
Q 1088 1775 1088 1275 
Q 1088 772 1336 495 
Q 1584 219 2034 219 
Q 2484 219 2732 495 
Q 2981 772 2981 1275 
z
M 2853 3541 
Q 2853 3966 2637 4203 
Q 2422 4441 2034 4441 
Q 1650 4441 1433 4203 
Q 1216 3966 1216 3541 
Q 1216 3113 1433 2875 
Q 1650 2638 2034 2638 
Q 2422 2638 2637 2875 
Q 2853 3113 2853 3541 
z
M 2516 2484 
Q 3047 2413 3344 2092 
Q 3641 1772 3641 1275 
Q 3641 619 3225 264 
Q 2809 -91 2034 -91 
Q 1263 -91 845 264 
Q 428 619 428 1275 
Q 428 1772 725 2092 
Q 1022 2413 1556 2484 
Q 1084 2569 832 2842 
Q 581 3116 581 3541 
Q 581 4103 968 4426 
Q 1356 4750 2034 4750 
Q 2713 4750 3100 4426 
Q 3488 4103 3488 3541 
Q 3488 3116 3236 2842 
Q 2984 2569 2516 2484 
z
" transform="scale(0.015625)"/>
       </defs>
       <use xlink:href="#DejaVuSerif-30"/>
       <use xlink:href="#DejaVuSerif-2e" x="63.623047"/>
       <use xlink:href="#DejaVuSerif-38" x="95.410156"/>
      </g>
     </g>
    </g>
    <g id="xtick_4">
     <g id="line2d_4">
      <g>
       <use xlink:href="#m8c06175076" x="210.430959" y="118.08" style="stroke: #000000; stroke-width: 0.8"/>
      </g>
     </g>
     <g id="text_4">
      <!-- 1.0 -->
      <g transform="translate(204.069709 131.15875) scale(0.08 -0.08)">
       <defs>
        <path id="DejaVuSerif-31" d="M 909 0 
L 909 331 
L 1722 331 
L 1722 4213 
L 781 3603 
L 781 4013 
L 1919 4750 
L 2350 4750 
L 2350 331 
L 3163 331 
L 3163 0 
L 909 0 
z
" transform="scale(0.015625)"/>
       </defs>
       <use xlink:href="#DejaVuSerif-31"/>
       <use xlink:href="#DejaVuSerif-2e" x="63.623047"/>
       <use xlink:href="#DejaVuSerif-30" x="95.410156"/>
      </g>
     </g>
    </g>
    <g id="xtick_5">
     <g id="line2d_5">
      <g>
       <use xlink:href="#m8c06175076" x="264.731703" y="118.08" style="stroke: #000000; stroke-width: 0.8"/>
      </g>
     </g>
     <g id="text_5">
      <!-- 1.2 -->
      <g transform="translate(258.370453 131.15875) scale(0.08 -0.08)">
       <defs>
        <path id="DejaVuSerif-32" d="M 819 3553 
L 469 3553 
L 469 4384 
Q 803 4563 1142 4656 
Q 1481 4750 1806 4750 
Q 2534 4750 2956 4397 
Q 3378 4044 3378 3438 
Q 3378 2753 2422 1800 
Q 2347 1728 2309 1691 
L 1131 513 
L 3078 513 
L 3078 1088 
L 3444 1088 
L 3444 0 
L 434 0 
L 434 341 
L 1850 1753 
Q 2319 2222 2519 2614 
Q 2719 3006 2719 3438 
Q 2719 3909 2473 4175 
Q 2228 4441 1797 4441 
Q 1350 4441 1106 4219 
Q 863 3997 819 3553 
z
" transform="scale(0.015625)"/>
       </defs>
       <use xlink:href="#DejaVuSerif-31"/>
       <use xlink:href="#DejaVuSerif-2e" x="63.623047"/>
       <use xlink:href="#DejaVuSerif-32" x="95.410156"/>
      </g>
     </g>
    </g>
    <g id="xtick_6">
     <g id="line2d_6">
      <g>
       <use xlink:href="#m8c06175076" x="319.032447" y="118.08" style="stroke: #000000; stroke-width: 0.8"/>
      </g>
     </g>
     <g id="text_6">
      <!-- 1.4 -->
      <g transform="translate(312.671197 131.15875) scale(0.08 -0.08)">
       <use xlink:href="#DejaVuSerif-31"/>
       <use xlink:href="#DejaVuSerif-2e" x="63.623047"/>
       <use xlink:href="#DejaVuSerif-34" x="95.410156"/>
      </g>
     </g>
    </g>
    <g id="xtick_7">
     <g id="line2d_7">
      <g>
       <use xlink:href="#m8c06175076" x="373.333191" y="118.08" style="stroke: #000000; stroke-width: 0.8"/>
      </g>
     </g>
     <g id="text_7">
      <!-- 1.6 -->
      <g transform="translate(366.971941 131.15875) scale(0.08 -0.08)">
       <use xlink:href="#DejaVuSerif-31"/>
       <use xlink:href="#DejaVuSerif-2e" x="63.623047"/>
       <use xlink:href="#DejaVuSerif-36" x="95.410156"/>
      </g>
     </g>
    </g>
    <g id="xtick_8">
     <g id="line2d_8">
      <g>
       <use xlink:href="#m8c06175076" x="427.633934" y="118.08" style="stroke: #000000; stroke-width: 0.8"/>
      </g>
     </g>
     <g id="text_8">
      <!-- 1.8 -->
      <g transform="translate(421.272684 131.15875) scale(0.08 -0.08)">
       <use xlink:href="#DejaVuSerif-31"/>
       <use xlink:href="#DejaVuSerif-2e" x="63.623047"/>
       <use xlink:href="#DejaVuSerif-38" x="95.410156"/>
      </g>
     </g>
    </g>
    <g id="xtick_9">
     <g id="line2d_9">
      <g>
       <use xlink:href="#m8c06175076" x="481.934678" y="118.08" style="stroke: #000000; stroke-width: 0.8"/>
      </g>
     </g>
     <g id="text_9">
      <!-- 2.0 -->
      <g transform="translate(475.573428 131.15875) scale(0.08 -0.08)">
       <use xlink:href="#DejaVuSerif-32"/>
       <use xlink:href="#DejaVuSerif-2e" x="63.623047"/>
       <use xlink:href="#DejaVuSerif-30" x="95.410156"/>
      </g>
     </g>
    </g>
    <g id="text_10">
     <!-- $\hat{E_t}/E_t$ -->
     <g transform="translate(260.6625 145.31875) scale(0.08 -0.08)">
      <defs>
       <path id="DejaVuSans-302" d="M -1831 5119 
L -1369 5119 
L -603 3944 
L -1038 3944 
L -1600 4709 
L -2163 3944 
L -2597 3944 
L -1831 5119 
z
M -1600 3584 
L -1600 3584 
z
" transform="scale(0.015625)"/>
       <path id="DejaVuSans-Oblique-45" d="M 1081 4666 
L 4031 4666 
L 3928 4134 
L 1606 4134 
L 1338 2753 
L 3566 2753 
L 3463 2222 
L 1234 2222 
L 909 531 
L 3284 531 
L 3181 0 
L 172 0 
L 1081 4666 
z
" transform="scale(0.015625)"/>
       <path id="DejaVuSans-Oblique-74" d="M 2706 3500 
L 2619 3053 
L 1472 3053 
L 1100 1153 
Q 1081 1047 1072 975 
Q 1063 903 1063 863 
Q 1063 663 1183 572 
Q 1303 481 1569 481 
L 2150 481 
L 2053 0 
L 1503 0 
Q 991 0 739 200 
Q 488 400 488 806 
Q 488 878 497 964 
Q 506 1050 525 1153 
L 897 3053 
L 409 3053 
L 500 3500 
L 978 3500 
L 1172 4494 
L 1747 4494 
L 1556 3500 
L 2706 3500 
z
" transform="scale(0.015625)"/>
       <path id="DejaVuSans-2f" d="M 1625 4666 
L 2156 4666 
L 531 -594 
L 0 -594 
L 1625 4666 
z
" transform="scale(0.015625)"/>
      </defs>
      <use xlink:href="#DejaVuSans-302" transform="translate(82.919189 30.015625)"/>
      <use xlink:href="#DejaVuSans-Oblique-45" transform="translate(0 0.609375)"/>
      <use xlink:href="#DejaVuSans-Oblique-74" transform="translate(63.183594 -15.796875) scale(0.7)"/>
      <use xlink:href="#DejaVuSans-2f" transform="translate(93.364258 0.609375)"/>
      <use xlink:href="#DejaVuSans-Oblique-45" transform="translate(127.055664 0.609375)"/>
      <use xlink:href="#DejaVuSans-Oblique-74" transform="translate(190.239258 -15.796875) scale(0.7)"/>
     </g>
    </g>
   </g>
   <g id="matplotlib.axis_2">
    <g id="ytick_1">
     <g id="line2d_10">
      <defs>
       <path id="m4e7459ade6" d="M 0 0 
L -3.5 0 
" style="stroke: #000000; stroke-width: 0.8"/>
      </defs>
      <g>
       <use xlink:href="#m4e7459ade6" x="46.3025" y="118.08" style="stroke: #000000; stroke-width: 0.8"/>
      </g>
     </g>
     <g id="text_11">
      <!-- 0 -->
      <g transform="translate(34.2125 121.119375) scale(0.08 -0.08)">
       <use xlink:href="#DejaVuSerif-30"/>
      </g>
     </g>
    </g>
    <g id="ytick_2">
     <g id="line2d_11">
      <g>
       <use xlink:href="#m4e7459ade6" x="46.3025" y="97.927328" style="stroke: #000000; stroke-width: 0.8"/>
      </g>
     </g>
     <g id="text_12">
      <!-- 250 -->
      <g transform="translate(24.0325 100.966703) scale(0.08 -0.08)">
       <defs>
        <path id="DejaVuSerif-35" d="M 3219 4666 
L 3219 4153 
L 1081 4153 
L 1081 2816 
Q 1244 2928 1461 2984 
Q 1678 3041 1947 3041 
Q 2703 3041 3140 2622 
Q 3578 2203 3578 1478 
Q 3578 738 3136 323 
Q 2694 -91 1894 -91 
Q 1572 -91 1234 -12 
Q 897 66 544 225 
L 544 1131 
L 897 1131 
Q 925 688 1179 453 
Q 1434 219 1894 219 
Q 2388 219 2653 544 
Q 2919 869 2919 1478 
Q 2919 2084 2655 2407 
Q 2391 2731 1894 2731 
Q 1613 2731 1398 2631 
Q 1184 2531 1019 2322 
L 750 2322 
L 750 4666 
L 3219 4666 
z
" transform="scale(0.015625)"/>
       </defs>
       <use xlink:href="#DejaVuSerif-32"/>
       <use xlink:href="#DejaVuSerif-35" x="63.623047"/>
       <use xlink:href="#DejaVuSerif-30" x="127.246094"/>
      </g>
     </g>
    </g>
    <g id="ytick_3">
     <g id="line2d_12">
      <g>
       <use xlink:href="#m4e7459ade6" x="46.3025" y="77.774656" style="stroke: #000000; stroke-width: 0.8"/>
      </g>
     </g>
     <g id="text_13">
      <!-- 500 -->
      <g transform="translate(24.0325 80.814031) scale(0.08 -0.08)">
       <use xlink:href="#DejaVuSerif-35"/>
       <use xlink:href="#DejaVuSerif-30" x="63.623047"/>
       <use xlink:href="#DejaVuSerif-30" x="127.246094"/>
      </g>
     </g>
    </g>
    <g id="ytick_4">
     <g id="line2d_13">
      <g>
       <use xlink:href="#m4e7459ade6" x="46.3025" y="57.621985" style="stroke: #000000; stroke-width: 0.8"/>
      </g>
     </g>
     <g id="text_14">
      <!-- 750 -->
      <g transform="translate(24.0325 60.66136) scale(0.08 -0.08)">
       <defs>
        <path id="DejaVuSerif-37" d="M 3609 4347 
L 1784 0 
L 1319 0 
L 3059 4153 
L 903 4153 
L 903 3578 
L 538 3578 
L 538 4666 
L 3609 4666 
L 3609 4347 
z
" transform="scale(0.015625)"/>
       </defs>
       <use xlink:href="#DejaVuSerif-37"/>
       <use xlink:href="#DejaVuSerif-35" x="63.623047"/>
       <use xlink:href="#DejaVuSerif-30" x="127.246094"/>
      </g>
     </g>
    </g>
    <g id="ytick_5">
     <g id="line2d_14">
      <g>
       <use xlink:href="#m4e7459ade6" x="46.3025" y="37.469313" style="stroke: #000000; stroke-width: 0.8"/>
      </g>
     </g>
     <g id="text_15">
      <!-- 1000 -->
      <g transform="translate(18.9425 40.508688) scale(0.08 -0.08)">
       <use xlink:href="#DejaVuSerif-31"/>
       <use xlink:href="#DejaVuSerif-30" x="63.623047"/>
       <use xlink:href="#DejaVuSerif-30" x="127.246094"/>
       <use xlink:href="#DejaVuSerif-30" x="190.869141"/>
      </g>
     </g>
    </g>
    <g id="ytick_6">
     <g id="line2d_15">
      <g>
       <use xlink:href="#m4e7459ade6" x="46.3025" y="17.316641" style="stroke: #000000; stroke-width: 0.8"/>
      </g>
     </g>
     <g id="text_16">
      <!-- 1250 -->
      <g transform="translate(18.9425 20.356016) scale(0.08 -0.08)">
       <use xlink:href="#DejaVuSerif-31"/>
       <use xlink:href="#DejaVuSerif-32" x="63.623047"/>
       <use xlink:href="#DejaVuSerif-35" x="127.246094"/>
       <use xlink:href="#DejaVuSerif-30" x="190.869141"/>
      </g>
     </g>
    </g>
    <g id="text_17">
     <!-- Count -->
     <g transform="translate(13.27875 74.86875) rotate(-90) scale(0.08 -0.08)">
      <defs>
       <path id="DejaVuSerif-43" d="M 4513 1234 
Q 4306 581 3820 245 
Q 3334 -91 2591 -91 
Q 2134 -91 1743 65 
Q 1353 222 1050 525 
Q 700 875 529 1320 
Q 359 1766 359 2328 
Q 359 3416 987 4083 
Q 1616 4750 2644 4750 
Q 3025 4750 3456 4650 
Q 3888 4550 4384 4347 
L 4384 3272 
L 4031 3272 
Q 3916 3859 3567 4137 
Q 3219 4416 2591 4416 
Q 1844 4416 1459 3886 
Q 1075 3356 1075 2328 
Q 1075 1303 1459 773 
Q 1844 244 2591 244 
Q 3113 244 3450 492 
Q 3788 741 3938 1234 
L 4513 1234 
z
" transform="scale(0.015625)"/>
       <path id="DejaVuSerif-6f" d="M 1925 219 
Q 2388 219 2623 584 
Q 2859 950 2859 1663 
Q 2859 2375 2623 2739 
Q 2388 3103 1925 3103 
Q 1463 3103 1227 2739 
Q 991 2375 991 1663 
Q 991 950 1228 584 
Q 1466 219 1925 219 
z
M 1925 -91 
Q 1200 -91 759 389 
Q 319 869 319 1663 
Q 319 2456 758 2934 
Q 1197 3413 1925 3413 
Q 2653 3413 3092 2934 
Q 3531 2456 3531 1663 
Q 3531 869 3092 389 
Q 2653 -91 1925 -91 
z
" transform="scale(0.015625)"/>
       <path id="DejaVuSerif-75" d="M 2266 3322 
L 3341 3322 
L 3341 331 
L 3884 331 
L 3884 0 
L 2766 0 
L 2766 588 
Q 2606 256 2353 82 
Q 2100 -91 1766 -91 
Q 1213 -91 952 223 
Q 691 538 691 1209 
L 691 2988 
L 172 2988 
L 172 3322 
L 1269 3322 
L 1269 1388 
Q 1269 781 1417 556 
Q 1566 331 1947 331 
Q 2347 331 2556 625 
Q 2766 919 2766 1478 
L 2766 2988 
L 2266 2988 
L 2266 3322 
z
" transform="scale(0.015625)"/>
       <path id="DejaVuSerif-6e" d="M 263 0 
L 263 331 
L 781 331 
L 781 2988 
L 231 2988 
L 231 3322 
L 1356 3322 
L 1356 2731 
Q 1516 3069 1770 3241 
Q 2025 3413 2363 3413 
Q 2913 3413 3172 3097 
Q 3431 2781 3431 2113 
L 3431 331 
L 3944 331 
L 3944 0 
L 2356 0 
L 2356 331 
L 2853 331 
L 2853 1931 
Q 2853 2541 2703 2767 
Q 2553 2994 2175 2994 
Q 1775 2994 1565 2701 
Q 1356 2409 1356 1850 
L 1356 331 
L 1856 331 
L 1856 0 
L 263 0 
z
" transform="scale(0.015625)"/>
       <path id="DejaVuSerif-74" d="M 691 2988 
L 184 2988 
L 184 3322 
L 691 3322 
L 691 4353 
L 1269 4353 
L 1269 3322 
L 2350 3322 
L 2350 2988 
L 1269 2988 
L 1269 878 
Q 1269 456 1350 337 
Q 1431 219 1650 219 
Q 1875 219 1978 351 
Q 2081 484 2088 781 
L 2522 781 
Q 2497 328 2275 118 
Q 2053 -91 1600 -91 
Q 1103 -91 897 129 
Q 691 350 691 878 
L 691 2988 
z
" transform="scale(0.015625)"/>
      </defs>
      <use xlink:href="#DejaVuSerif-43"/>
      <use xlink:href="#DejaVuSerif-6f" x="76.513672"/>
      <use xlink:href="#DejaVuSerif-75" x="136.71875"/>
      <use xlink:href="#DejaVuSerif-6e" x="201.123047"/>
      <use xlink:href="#DejaVuSerif-74" x="265.527344"/>
     </g>
    </g>
   </g>
   <g id="line2d_16">
    <path d="M 66.593409 118.08 
L 132.70414 117.978014 
L 139.823758 117.755417 
L 144.909199 117.386202 
L 148.977551 116.85644 
L 152.028816 116.251096 
L 155.08008 115.400897 
L 158.131345 114.233897 
L 160.165521 113.240082 
L 162.199698 112.04387 
L 164.233874 110.619247 
L 166.26805 108.940757 
L 168.302227 106.984641 
L 170.336403 104.730162 
L 172.370579 102.16106 
L 174.404756 99.267098 
L 176.438932 96.045613 
L 178.473108 92.502996 
L 181.524373 86.626658 
L 184.575637 80.173226 
L 188.64399 70.966448 
L 194.746519 57.046858 
L 197.797784 50.68541 
L 199.83196 46.883174 
L 201.866136 43.538223 
L 203.900313 40.733197 
L 205.934489 38.539464 
L 206.951577 37.690301 
L 207.968665 37.014107 
L 208.985754 36.51538 
L 210.002842 36.197453 
L 211.01993 36.062459 
L 212.037018 36.111304 
L 213.054106 36.34366 
L 214.071194 36.757967 
L 215.088283 37.351451 
L 216.105371 38.120155 
L 217.122459 39.058982 
L 219.156635 41.421272 
L 221.190812 44.377179 
L 223.224988 47.852027 
L 225.259164 51.760741 
L 228.310429 58.234975 
L 233.39587 69.863804 
L 238.481311 81.351363 
L 241.532575 87.712959 
L 244.58384 93.474452 
L 246.618016 96.932965 
L 248.652192 100.067689 
L 250.686369 102.874773 
L 252.720545 105.35904 
L 254.754721 107.532479 
L 256.788898 109.412689 
L 258.823074 111.021345 
L 260.857251 112.38278 
L 262.891427 113.522701 
L 264.925603 114.467103 
L 267.976868 115.572322 
L 271.028132 116.374228 
L 274.079397 116.942889 
L 278.147749 117.438286 
L 283.23319 117.781567 
L 290.352808 117.987009 
L 303.574954 118.072032 
L 384.942008 118.08 
L 472.411591 118.08 
L 472.411591 118.08 
" clip-path="url(#pb7cc69131d)" style="fill: none; stroke: #2c9b03; stroke-opacity: 0.7; stroke-width: 2; stroke-linecap: square"/>
   </g>
   <g id="line2d_17">
    <path d="M 66.593409 114.24527 
L 76.764291 113.041524 
L 85.918084 111.740142 
L 95.071878 110.222276 
L 104.225672 108.487076 
L 114.396553 106.316515 
L 124.567435 103.921459 
L 137.789581 100.560068 
L 168.302227 92.684035 
L 177.45602 90.606471 
L 185.592726 88.988908 
L 192.712343 87.79371 
L 199.83196 86.836341 
L 205.934489 86.224321 
L 212.037018 85.817729 
L 218.139547 85.624665 
L 224.242076 85.649001 
L 230.344605 85.890246 
L 236.447134 86.34357 
L 242.549663 86.99996 
L 249.669281 88.004999 
L 256.788898 89.242375 
L 264.925603 90.900265 
L 274.079397 93.012085 
L 285.267367 95.832951 
L 320.865453 104.985678 
L 331.036335 107.288448 
L 341.207216 109.350643 
L 350.36101 110.981557 
L 359.514803 112.39434 
L 368.668597 113.594245 
L 378.839479 114.693473 
L 389.010361 115.570594 
L 400.19833 116.313919 
L 412.403389 116.906726 
L 426.642623 117.376215 
L 443.933122 117.71978 
L 467.32615 117.946414 
L 472.411591 117.973723 
L 472.411591 117.973723 
" clip-path="url(#pb7cc69131d)" style="fill: none; stroke: #051cb2; stroke-opacity: 0.7; stroke-width: 2; stroke-linecap: square"/>
   </g>
   <g id="line2d_18">
    <path d="M 210.430959 118.08 
L 210.430959 7.2 
" clip-path="url(#pb7cc69131d)" style="fill: none; stroke: #000000; stroke-opacity: 0.8; stroke-linecap: square"/>
   </g>
   <g id="patch_201">
    <path d="M 46.3025 118.08 
L 46.3025 7.2 
" style="fill: none; stroke: #000000; stroke-width: 0.8; stroke-linejoin: miter; stroke-linecap: square"/>
   </g>
   <g id="patch_202">
    <path d="M 492.7025 118.08 
L 492.7025 7.2 
" style="fill: none; stroke: #000000; stroke-width: 0.8; stroke-linejoin: miter; stroke-linecap: square"/>
   </g>
   <g id="patch_203">
    <path d="M 46.3025 118.08 
L 492.7025 118.08 
" style="fill: none; stroke: #000000; stroke-width: 0.8; stroke-linejoin: miter; stroke-linecap: square"/>
   </g>
   <g id="patch_204">
    <path d="M 46.3025 7.2 
L 492.7025 7.2 
" style="fill: none; stroke: #000000; stroke-width: 0.8; stroke-linejoin: miter; stroke-linecap: square"/>
   </g>
   <g id="legend_1">
    <g id="patch_205">
     <path d="M 443.12625 37.085 
L 487.1025 37.085 
Q 488.7025 37.085 488.7025 35.485 
L 488.7025 12.8 
Q 488.7025 11.2 487.1025 11.2 
L 443.12625 11.2 
Q 441.52625 11.2 441.52625 12.8 
L 441.52625 35.485 
Q 441.52625 37.085 443.12625 37.085 
z
" style="fill: #ffffff; opacity: 0.8; stroke: #cccccc; stroke-linejoin: miter"/>
    </g>
    <g id="patch_206">
     <path d="M 444.72625 20.47875 
L 460.72625 20.47875 
L 460.72625 14.87875 
L 444.72625 14.87875 
z
" style="fill: #051cb2"/>
    </g>
    <g id="text_18">
     <!-- CPU -->
     <g transform="translate(467.12625 20.47875) scale(0.08 -0.08)">
      <defs>
       <path id="DejaVuSerif-50" d="M 1581 2375 
L 2406 2375 
Q 2872 2375 3115 2626 
Q 3359 2878 3359 3353 
Q 3359 3831 3115 4081 
Q 2872 4331 2406 4331 
L 1581 4331 
L 1581 2375 
z
M 353 0 
L 353 331 
L 947 331 
L 947 4331 
L 353 4331 
L 353 4666 
L 2559 4666 
Q 3259 4666 3668 4311 
Q 4078 3956 4078 3353 
Q 4078 2753 3668 2397 
Q 3259 2041 2559 2041 
L 1581 2041 
L 1581 331 
L 2303 331 
L 2303 0 
L 353 0 
z
" transform="scale(0.015625)"/>
       <path id="DejaVuSerif-55" d="M 897 4331 
L 300 4331 
L 300 4666 
L 2125 4666 
L 2125 4331 
L 1528 4331 
L 1528 1919 
Q 1528 1025 1820 672 
Q 2113 319 2828 319 
Q 3544 319 3836 672 
Q 4128 1025 4128 1919 
L 4128 4331 
L 3531 4331 
L 3531 4666 
L 5106 4666 
L 5106 4331 
L 4513 4331 
L 4513 1856 
Q 4513 791 4103 350 
Q 3694 -91 2713 -91 
Q 1731 -91 1314 353 
Q 897 797 897 1856 
L 897 4331 
z
" transform="scale(0.015625)"/>
      </defs>
      <use xlink:href="#DejaVuSerif-43"/>
      <use xlink:href="#DejaVuSerif-50" x="76.513672"/>
      <use xlink:href="#DejaVuSerif-55" x="142.048828"/>
     </g>
    </g>
    <g id="patch_207">
     <path d="M 444.72625 32.22125 
L 460.72625 32.22125 
L 460.72625 26.62125 
L 444.72625 26.62125 
z
" style="fill: #2c9b03"/>
    </g>
    <g id="text_19">
     <!-- GPU -->
     <g transform="translate(467.12625 32.22125) scale(0.08 -0.08)">
      <defs>
       <path id="DejaVuSerif-47" d="M 4097 3272 
Q 3988 3856 3641 4136 
Q 3294 4416 2675 4416 
Q 1869 4416 1472 3897 
Q 1075 3378 1075 2328 
Q 1075 1300 1484 772 
Q 1894 244 2688 244 
Q 3041 244 3362 331 
Q 3684 419 3975 594 
L 3975 1797 
L 3097 1797 
L 3097 2131 
L 4609 2131 
L 4609 391 
Q 4194 150 3714 29 
Q 3234 -91 2688 -91 
Q 1631 -91 995 570 
Q 359 1231 359 2328 
Q 359 3434 996 4092 
Q 1634 4750 2713 4750 
Q 3113 4750 3539 4658 
Q 3966 4566 4447 4378 
L 4447 3272 
L 4097 3272 
z
" transform="scale(0.015625)"/>
      </defs>
      <use xlink:href="#DejaVuSerif-47"/>
      <use xlink:href="#DejaVuSerif-50" x="79.882812"/>
      <use xlink:href="#DejaVuSerif-55" x="145.417969"/>
     </g>
    </g>
   </g>
  </g>
 </g>
 <defs>
  <clipPath id="pb7cc69131d">
   <rect x="46.3025" y="7.2" width="446.4" height="110.88"/>
  </clipPath>
 </defs>
</svg>
